<?xml version="1.0" encoding="UTF-8" standalone="no"?>
<!-- Created with Inkscape (http://www.inkscape.org/) -->

<svg
   xmlns:dc="http://purl.org/dc/elements/1.1/"
   xmlns:cc="http://creativecommons.org/ns#"
   xmlns:rdf="http://www.w3.org/1999/02/22-rdf-syntax-ns#"
   xmlns:svg="http://www.w3.org/2000/svg"
   xmlns="http://www.w3.org/2000/svg"
   xmlns:sodipodi="http://sodipodi.sourceforge.net/DTD/sodipodi-0.dtd"
   xmlns:inkscape="http://www.inkscape.org/namespaces/inkscape"
   width="210mm"
   height="297mm"
   viewBox="0 0 210 297"
   version="1.1"
   id="svg8"
   inkscape:version="0.92.4 (5da689c313, 2019-01-14)"
   sodipodi:docname="logos.svg">
  <defs
     id="defs2" />
  <sodipodi:namedview
     id="base"
     pagecolor="#ffffff"
     bordercolor="#666666"
     borderopacity="1.0"
     inkscape:pageopacity="0.0"
     inkscape:pageshadow="2"
     inkscape:zoom="0.38"
     inkscape:cx="450.95264"
     inkscape:cy="492.18741"
     inkscape:document-units="mm"
     inkscape:current-layer="layer1"
     showgrid="false"
     inkscape:window-width="1366"
     inkscape:window-height="705"
     inkscape:window-x="-8"
     inkscape:window-y="-8"
     inkscape:window-maximized="1" />
  <metadata
     id="metadata5">
    <rdf:RDF>
      <cc:Work
         rdf:about="">
        <dc:format>image/svg+xml</dc:format>
        <dc:type
           rdf:resource="http://purl.org/dc/dcmitype/StillImage" />
        <dc:title></dc:title>
      </cc:Work>
    </rdf:RDF>
  </metadata>
  <g
     inkscape:label="Layer 1"
     inkscape:groupmode="layer"
     id="layer1">
    <path
       inkscape:connector-curvature="0"
       style="fill:#000000;stroke-width:1"
       d="m 19.998305,142.12452 -0.792827,0.32042 c -1.576857,0.6376 -2.494112,1.60063 -3.039621,3.19105 -0.222598,0.64898 -0.243977,2.29637 -0.281467,21.70093 -0.02843,14.71507 0.0055,21.26715 0.113026,21.89597 0.164658,0.9631 0.612901,1.97048 1.172504,2.63553 0.462824,0.55004 1.665103,1.19378 2.617696,1.40157 0.580359,0.12663 5.978458,0.17104 21.700925,0.17805 22.71915,0.0101 22.12551,0.0292 23.460777,-0.75332 0.803794,-0.47106 1.537711,-1.35187 1.9261,-2.31154 l 0.317131,-0.7835 v -21.6307 c 0,-21.03352 -0.0075,-21.65376 -0.272689,-22.46275 -0.492333,-1.50212 -1.673309,-2.68013 -3.142771,-3.13481 -0.747065,-0.23114 -2.17779,-0.2469 -22.288548,-0.2469 z m 33.307725,7.807 c 0.447785,-0.008 0.902962,0.0905 1.328601,0.31521 2.220588,1.17233 1.916384,4.5102 -0.475695,5.22057 -0.777135,0.23079 -0.975129,0.24121 -1.504723,0.0801 -1.489369,-0.45305 -2.394474,-1.76264 -2.184797,-3.16088 0.216124,-1.44122 1.493262,-2.42992 2.836614,-2.45501 z m -23.50083,0.004 c 0.794788,0.0116 1.595896,0.34604 2.17108,1.04384 1.082751,1.31356 0.732363,3.36055 -0.718207,4.19512 -1.394278,0.80218 -2.98936,0.44851 -3.887314,-0.86196 -0.393173,-0.5738 -0.52679,-1.7463 -0.283113,-2.48465 0.408115,-1.2366 1.555939,-1.90932 2.717554,-1.89235 z m 23.481902,6.51543 h 3.792395 l 0.801878,0.39367 c 0.875392,0.42987 1.475608,1.0915 1.843251,2.03199 0.203663,0.52099 0.234281,1.2699 0.234281,5.6993 v 5.09932 l -0.35444,0.33331 c -0.462238,0.43424 -1.223197,0.42779 -1.693739,-0.0143 l -0.339625,-0.31905 v -4.32982 c 0,-4.21558 -0.0071,-4.32954 -0.276804,-4.32954 -0.273083,0 -0.277544,0.16128 -0.316033,11.48253 -0.0425,12.49743 5e-5,11.88062 -0.855647,12.40237 -0.546901,0.33345 -0.957921,0.34478 -1.591412,0.0442 -0.908147,-0.43093 -0.892957,-0.2972 -0.892957,-7.83965 0,-6.7256 -0.0039,-6.81912 -0.280918,-6.81912 -0.277199,0 -0.280937,0.0938 -0.281468,6.77715 -5.62e-4,6.47393 -0.0127,6.79723 -0.274608,7.22678 -0.150799,0.24732 -0.463552,0.54755 -0.694888,0.66718 -0.529118,0.27363 -0.944758,0.27116 -1.512953,-0.009 -0.923569,-0.45547 -0.888019,0.0491 -0.888019,-12.54146 0,-11.29743 -0.0023,-11.3909 -0.280918,-11.3909 -0.27455,0 -0.280918,0.0935 -0.280918,4.13421 0,2.39869 -0.05839,4.28858 -0.139362,4.50155 -0.08254,0.21709 -0.34081,0.45112 -0.632066,0.57281 -0.432552,0.18074 -0.552581,0.18074 -0.985134,0 -0.300694,-0.12563 -0.549464,-0.35524 -0.63865,-0.58982 -0.09416,-0.24769 -0.131109,-2.15913 -0.104247,-5.37941 0.0394,-4.72819 0.05723,-5.02886 0.335785,-5.62714 0.371492,-0.7979 1.070276,-1.4954 1.882756,-1.87892 0.595713,-0.28121 0.850194,-0.2982 4.42446,-0.2982 z m -23.524699,0.0513 c 1.480523,4.2e-4 2.961734,0.0794 3.338372,0.2362 0.588386,0.24488 1.63759,1.20616 1.935976,1.77358 0.427952,0.8138 2.88143,9.1759 2.79519,9.5268 -0.236106,0.96067 -1.444386,1.347 -2.000719,0.63974 -0.14857,-0.18888 -0.762211,-2.00607 -1.363714,-4.0382 -0.601503,-2.03212 -1.152459,-3.80918 -1.224353,-3.94904 -0.130394,-0.25366 -0.620102,-0.26904 -0.585154,-0.0184 0.01013,0.0727 0.847617,2.98419 1.861082,6.47017 1.013464,3.48599 1.842702,6.4093 1.842702,6.49624 0,0.1087 -0.548473,0.15829 -1.755738,0.15829 h -1.755738 v 5.27791 5.27791 l -0.410405,0.41068 c -0.593809,0.59382 -1.565301,0.52879 -2.07808,-0.13908 -0.127356,-0.16589 -0.17223,-1.57853 -0.175574,-5.52509 l -0.0047,-5.30233 h -0.42134 -0.421378 v 5.27791 5.27791 l -0.410404,0.41068 c -0.555364,0.55539 -1.355802,0.57249 -1.887967,0.0403 l -0.370351,-0.37035 v -5.31412 -5.31413 l -1.799907,-0.0392 -1.800179,-0.0392 1.869861,-6.46111 c 1.028421,-3.55361 1.870156,-6.54013 1.870409,-6.63669 8.43e-4,-0.29801 -0.419093,-0.19366 -0.565127,0.14046 -0.07597,0.17381 -0.606136,1.90521 -1.177991,3.84753 -0.571857,1.94233 -1.110187,3.66318 -1.196371,3.82422 -0.489422,0.91449 -1.942039,0.6932 -2.200159,-0.33524 -0.109285,-0.43542 2.476019,-9.00326 2.975153,-9.85984 0.384029,-0.65905 1.005882,-1.1864 1.781525,-1.51048 0.374541,-0.15659 1.854558,-0.2345 3.335079,-0.23401 z"
       id="path21"
       sodipodi:nodetypes="ccsscccccccsccsccscccccccccscccccsccccsssccssccccsssccccccccccccccccccssccccccccccccccccccsccscccccc" />
    <g
       id="g87"
       transform="translate(-17.406798,-19.495614)">
      <g
         style="stroke-width:2.55247045"
         transform="matrix(0.39177731,0,0,0.39177731,72.7967,127.29859)"
         id="g46">
        <g
           style="stroke-width:2.55247045"
           id="g42">
          <path
             sodipodi:nodetypes="ccccccccccccccscccccccccsccccccccccccccccccccccccssccsccccccccccccscccccsccccccccccccccccc"
             inkscape:connector-curvature="0"
             id="path38"
             transform="scale(0.26458333)"
             d="m 373.49414,340.07812 c -122.7406,-0.0187 -110.8308,0.30128 -117.00195,6.61329 -6.75141,6.9055 -6.27937,-10.85124 -5.97852,224.90039 l 0.27149,213.5 3.30468,4.75781 c 2.05788,2.9639 5.0745,5.67982 8,7.20312 l 4.69532,2.44532 167.86523,0.0469 167.86523,0.0469 4.98243,-2.71289 c 3.01009,-1.63832 6.23086,-4.50909 8.13476,-7.25 l 3.15235,-4.53711 0.27343,-213.5 c 0.30093,-235.75163 0.77286,-217.99489 -5.97851,-224.90039 -7.05279,-7.21372 9.50976,-6.59961 -178.29492,-6.59961 -23.4756,0 -43.75665,-0.011 -61.29102,-0.0137 z m 9.29102,21.01368 h 52 52 l 3.78125,2.34961 c 7.16466,4.45428 7.87386,7.37119 7.52539,30.96875 -0.29534,19.98905 -0.38629,20.79296 -2.70703,24.04687 -1.32057,1.85159 -4.24559,4.20468 -6.5,5.22852 -3.82228,1.73601 -7.47423,1.86133 -54.09961,1.86133 -46.62547,-10e-6 -50.27539,-0.12547 -54.09766,-1.86133 -2.25441,-1.02384 -5.17943,-3.37693 -6.5,-5.22852 -2.32074,-3.25391 -2.41185,-4.05782 -2.70703,-24.04687 -0.34866,-23.59756 0.35892,-26.51447 7.52344,-30.96875 z m 53.45233,7.26165 c 22.0447,46.41607 0,0 22.0447,46.41607 17.64912,-46.60155 0,-0.36308 17.64912,-46.60155 -37.87841,-0.1776 -1.81541,0.36308 -39.69382,0.18548 z m -50.95547,46.39245 41.17578,-0.5 -22.42629,-46.09708 z m -64.72733,-36.07015 c 6.84944,0.0728 12.87266,4.90414 14.32031,12.5625 0.84854,4.48879 -2.59764,11.77759 -6.77148,14.32227 v -0.002 c -4.33788,2.6462 -11.27152,2.66365 -15.57618,0.0391 -4.33213,-2.64133 -7.72694,-9.61557 -6.875,-14.125 0.95721,-5.06642 3.97541,-9.34098 7.91602,-11.21094 2.32798,-1.1047 4.70318,-1.61022 6.98633,-1.58594 z m 230.5957,0.082 c 0.62115,-8.1e-4 1.25935,0.0354 1.91602,0.10938 5.34183,0.60211 9.10463,3.16051 11.46679,7.79297 3.52483,6.9126 1.22772,14.83881 -5.48828,18.93359 -2.0733,1.2641 -5.03517,1.98977 -8.14062,1.99219 -4.4326,0.003 -5.28335,-0.39855 -9.25,-4.36524 -4.10914,-4.10933 -4.36914,-4.6984 -4.36914,-9.92382 0,-4.53359 0.48155,-6.12565 2.61914,-8.66602 3.37147,-4.0068 6.89804,-5.86736 11.24609,-5.87305 z M 286.58203,446.5918 h 61.00781 61.00782 l 3.42968,2.61523 c 1.88625,1.43872 4.28872,4.02623 5.33985,5.75 1.85854,3.04834 1.91028,7.19632 1.91406,151.43359 0.004,162.70916 0.44864,151.12502 -5.99023,156.54297 -1.68685,1.41941 -4.74167,3.04518 -6.78711,3.61329 -4.41956,1.22743 -112.91137,1.267 -118.09571,0.043 -3.97028,-0.93736 -7.6898,-3.5397 -10.56054,-7.38476 -2.06094,-2.76038 -2.0625,-2.82259 -2.0625,-152.61328 V 456.73828 l 2.09179,-2.82422 c 1.15057,-1.55285 3.58019,-3.83477 5.39844,-5.07226 z m 174.16797,0 h 60.90039 c 59.65353,0 60.96705,0.0404 64.2168,2.04882 1.82468,1.12774 4.35195,3.71526 5.61719,5.75 l 2.30078,3.70118 v 148.5 148.5 l -2.30078,3.69922 c -1.26524,2.03478 -3.96526,4.7348 -6,6 l -3.69922,2.30078 -58,0.16601 c -31.90001,0.0918 -59.35802,-0.16715 -61.01954,-0.57617 -4.4663,-1.09946 -8.15932,-3.83702 -10.71289,-7.94336 l -2.26757,-3.64648 -0.26172,-147.40821 -0.26367,-147.40625 2.11914,-4.38086 c 1.16598,-2.40861 3.75224,-5.48695 5.74609,-6.84179 z"
             style="fill:#000000;stroke-width:9.64713287" />
        </g>
      </g>
    </g>
    <g
       id="g63"
       transform="matrix(0.36413917,0,0,0.39575953,93.437298,82.990636)"
       style="stroke-width:2.6342113">
      <path
         id="path59"
         transform="scale(0.26458333)"
         d="m 573.68359,567.16211 -3.26953,3.26953 -3.26953,3.26953 V 790.60156 1007.502 l 2.5,2.6894 c 1.37503,1.4795 3.40001,3.0654 4.5,3.5234 1.09999,0.4582 63.07849,0.7465 137.73047,0.6407 l 135.73047,-0.1934 3.26953,-3.2695 3.26953,-3.2676 V 790.66211 573.70117 l -3.26953,-3.26953 -3.26953,-3.26953 H 710.64453 Z m 16.96094,22.5 h 86.5 86.5 v 22.5 22.5 l -17.25,-0.002 -17.25,-0.004 -0.0273,-4.50391 c -0.0221,-3.72597 -0.5856,-5.06579 -3.26563,-7.74804 l -3.24023,-3.24219 -16.73438,-0.32617 c -10.25945,-0.20032 -18.16344,0.0986 -20.42968,0.77344 -5.07274,1.51063 -7.80274,5.25083 -7.80274,10.6875 v 4.36523 h -7.5 -7.5 v -8.35156 c 0,-7.03809 -0.35797,-8.88532 -2.2793,-11.73633 -4.16212,-6.17624 -10.03082,-7.52093 -15.82226,-3.62695 -4.25318,2.85974 -5.76923,7.13118 -5.8418,16.46484 l -0.0566,7.25 h -5 -5 v -7.53125 c 0,-9.105 -1.74072,-13.73102 -6.18945,-16.44336 -4.18931,-2.55413 -7.43179,-2.55413 -11.6211,0 -4.44873,2.71234 -6.18945,7.33836 -6.18945,16.44336 v 7.53125 h -7 -7 v -22.5 z m 196,0 h 22 22 v 201 201 h -120 -120 v -53.5 -53.5 h 93.03125 c 78.14113,0 93.57657,-0.2262 96.4336,-1.41992 7.01249,-2.93004 6.53515,8.08613 6.53515,-150.5293 z m -196,69 h 86.5 86.5 v 17.5 17.5 h -14.40234 -14.4043 l -0.3457,-9.43555 c -0.32489,-8.84674 -0.53098,-9.62744 -3.27344,-12.48828 -3.83958,-4.00532 -8.363,-4.83347 -13.27344,-2.42969 -5.14722,2.51966 -6.26626,5.30499 -6.28515,15.60352 l -0.0156,8.75 h -5.4043 -5.40234 l -0.34766,-9.43555 c -0.32488,-8.84674 -0.52902,-9.62744 -3.27148,-12.48828 -3.62415,-3.78058 -8.07178,-4.73 -12.83398,-2.74023 -5.4381,2.27217 -6.91735,5.36043 -7.50586,15.68164 l -0.51172,8.98242 h -4.86133 -4.86133 v -8.35156 c 0,-7.03809 -0.35801,-8.88528 -2.2793,-11.73633 -4.16216,-6.1762 -10.03082,-7.52093 -15.82226,-3.62695 -4.25318,2.8597 -5.76923,7.13118 -5.8418,16.46484 l -0.0566,7.25 h -5 -5 v -7.53125 c 0,-9.10503 -1.74072,-13.73102 -6.18945,-16.44336 -4.18927,-2.55413 -7.43183,-2.55413 -11.6211,0 -4.44873,2.71234 -6.18945,7.33833 -6.18945,16.44336 v 7.53125 h -9 -9 v -17.5 z m 0.002,59 h 86.5 86.5 v 18 18 h -14.5 -14.5 l -0.004,-10.25 c -0.003,-8.38484 -0.35805,-10.82911 -1.94727,-13.43555 -2.45624,-4.02826 -5.36276,-5.58594 -10.41992,-5.58594 -3.31011,0 -4.55841,0.618 -7.31055,3.6211 l -3.31836,3.62109 v 11.01563 11.01367 h -5.5 -5.5 v -10.35156 c 0,-9.12718 -0.27111,-10.75416 -2.2871,-13.75 -3.98261,-5.91821 -12.08912,-7.05899 -17.10743,-2.40821 -3.26362,3.02465 -4.59205,8.30404 -4.59961,18.25977 l -0.008,8.25 h -7.52539 c -6.87927,0 -7.59797,-0.19303 -8.39258,-2.25 -0.47803,-1.23749 -2.07896,-3.37501 -3.55664,-4.75 -2.67522,-2.48867 -2.76904,-2.5 -22.1875,-2.5 h -19.50195 l -2.91797,3.26562 c -1.60486,1.79619 -2.91797,3.93366 -2.91797,4.75 h 0.002 c 0,1.20832 -1.76712,1.48438 -9.5,1.48438 h -9.5 v -18 z m 217.38282,2 c -3.8801,0 -5.10661,0.52262 -7.98438,3.40039 l -3.40039,3.40039 v 11.69922 11.70117 l 3.40039,3.39844 c 2.87777,2.87777 4.10428,3.40039 7.98438,3.40039 3.65212,0 5.24782,-0.5933 7.84961,-2.91797 l 3.26562,-2.91797 v -12.66406 -12.66406 l -3.26562,-2.91797 c -2.60179,-2.32468 -4.19749,-2.91797 -7.84961,-2.91797 z m -0.42188,41.4668 c -1.47591,0.0374 -2.95144,0.38277 -4.36328,1.05273 -5.54086,2.62934 -6.59961,5.60311 -6.59961,18.53125 v 11.15039 l 3.40039,3.39844 c 3.85996,3.85992 8.5557,4.51021 13.63281,1.88476 5.0267,-2.5994 6.18239,-6.28862 5.80274,-18.52148 -0.30535,-9.83837 -0.5539,-11.04021 -2.77539,-13.40234 -2.59827,-2.76283 -5.85066,-4.17599 -9.09766,-4.09375 z m -216.96484,15.5332 h 86.5 86.5 v 18 18 h -14.5 -14.5 v -11.03125 c 0,-12.71169 -1.31034,-17.04388 -5.8711,-19.40234 -5.16967,-2.67334 -9.84614,-2.04835 -13.72851,1.83398 l -3.40039,3.40039 v 12.59961 c 0,11.41644 -0.16773,12.59961 -1.78125,12.59961 -1.18689,0 -2.27084,-1.38611 -3.25,-4.1582 -2.33934,-6.62302 -5.47666,-8.28032 -16.44141,-8.6836 -7.30129,-0.26853 -10.12334,0.0327 -12.97265,1.38477 -3.74964,1.77932 -6.55469,5.80423 -6.55469,9.4082 0,1.38301 -0.65048,2.04883 -2,2.04883 -1.87979,0 -2,-0.66544 -2,-11.09766 0,-12.48347 -1.21173,-16.41414 -5.91992,-19.19531 -6.65193,-3.92942 -14.9392,-0.47423 -17.04493,7.10742 -0.56303,2.02715 -1.02619,8.07304 -1.02929,13.43555 l -0.004,9.75 h -5 -5 v -11.09766 c 0,-12.48347 -1.21176,-16.41414 -5.91992,-19.19531 -4.7678,-2.81643 -9.54299,-2.22415 -13.84375,1.7168 l -3.73633,3.42187 -0.35351,12.57813 -0.35352,12.57617 h -8.89648 -8.89844 v -18 z m 0.002,59 h 86.5 86.5 v 12.5 12.5 h -9 c -8.30948,0 -9,-0.1524 -9,-1.98438 0,-1.09133 -1.31247,-3.45381 -2.91601,-5.25 l -2.91407,-3.26562 -12.33593,-0.32227 c -11.56007,-0.30293 -12.55374,-0.176 -15.83399,2.02149 -2.08252,1.39506 -3.88772,3.65132 -4.45703,5.57226 -0.88467,2.98515 -1.27841,3.22852 -5.23047,3.22852 -3.72015,0 -4.35464,-0.32171 -4.89844,-2.48828 -0.34359,-1.36906 -2.16866,-3.84408 -4.05468,-5.5 -3.39614,-2.98061 -3.54199,-3.01159 -15.14453,-3.00781 -13.65986,0.004 -17.1933,1.37154 -19.18946,7.41992 -1.10619,3.35176 -1.44699,3.57617 -5.40234,3.57617 -3.93249,0 -4.30942,-0.24343 -5.51172,-3.56836 -2.27913,-6.30282 -5.71081,-7.55633 -19.75977,-7.2207 -13.46536,0.32179 -15.26851,1.07546 -18.0039,7.53906 l -1.375,3.25 h -8.98633 -8.98633 v -12.5 z m 120,71.84375 c -28.97188,0 -57.94451,0.52328 -60.45508,1.57226 -6.36449,2.65928 -7.00393,4.83491 -7.38672,25.08985 -0.38025,20.12012 0.41159,25.08682 4.61915,28.98828 l 2.70312,2.50586 h 60.65625 60.65625 l 3.03516,-3.45703 c 3.93278,-4.47923 4.4608,-8.32063 4.02343,-29.26367 -0.39473,-18.90142 -1.11819,-21.24007 -7.39648,-23.86329 -2.51057,-1.04898 -31.4832,-1.57226 -60.45508,-1.57226 z m -44,24.15625 h 44 44 v 5.5 5.5 h -44 -44 v -5.5 z"
         style="fill:#000000;stroke-width:9.95607471"
         inkscape:connector-curvature="0" />
    </g>
  </g>
</svg>
