<?xml version="1.0" standalone="no"?>
<!DOCTYPE svg PUBLIC "-//W3C//DTD SVG 20010904//EN"
 "http://www.w3.org/TR/2001/REC-SVG-20010904/DTD/svg10.dtd">
<svg version="1.0" xmlns="http://www.w3.org/2000/svg"
 width="132.000000pt" height="132.000000pt" viewBox="0 0 132.000000 132.000000"
 preserveAspectRatio="xMidYMid meet">
<metadata>
Created by potrace 1.11, written by Peter Selinger 2001-2013
</metadata>
<g transform="translate(0.000000,132.000000) scale(0.100000,-0.100000)"
fill="#000000" stroke="none">
<path d="M115 1148 c-45 -24 -45 -26 -45 -374 0 -183 3 -340 6 -349 8 -20 56
-45 89 -45 20 0 25 -5 25 -25 0 -76 89 -155 175 -155 86 0 175 79 175 155 l0
25 125 0 125 0 0 -25 c0 -51 56 -123 113 -144 36 -14 88 -14 124 0 57 21 113
93 113 143 0 23 4 25 58 28 l57 3 0 55 c0 53 -1 55 -27 58 l-28 3 0 122 0 121
-118 118 -118 118 -62 0 -62 0 0 59 c0 123 8 121 -387 121 -211 -1 -325 -4
-338 -12z m403 -230 l3 -57 57 -3 57 -3 0 -55 0 -55 -57 -3 -57 -3 -3 -57 -3
-57 -60 0 -60 0 -3 57 -3 57 -57 3 -57 3 0 55 0 55 58 3 57 3 0 53 c0 29 3 56
7 60 4 4 32 6 63 4 l55 -3 3 -57z m504 -125 c54 -54 98 -101 98 -105 0 -5 -63
-8 -140 -8 l-140 0 0 105 0 105 42 0 c40 0 48 -5 140 -97z m-610 -334 c11 -6
26 -26 34 -45 12 -29 12 -39 0 -68 -32 -77 -130 -77 -162 0 -12 29 -12 39 0
68 8 19 22 39 33 45 24 14 69 14 95 0z m600 0 c11 -6 26 -26 34 -45 12 -29 12
-39 0 -68 -32 -77 -130 -77 -162 0 -12 29 -12 39 0 68 8 19 22 39 33 45 24 14
69 14 95 0z"/>
</g>
</svg>
